/vscmnt/brussel_pixiu_data/_data_brussel/112/vsc11236/PredSimResults/SUBJ06mtu3D/worker3.mot
version=1
nRows=4
nColumns=50
inDegrees=yes
endheader
                time	         pelvis_tilt	         pelvis_list	     pelvis_rotation	           pelvis_tx	           pelvis_ty	           pelvis_tz	       hip_flexion_r	     hip_adduction_r	      hip_rotation_r	        knee_angle_r	       ankle_angle_r	         mtp_angle_r	       hip_flexion_l	     hip_adduction_l	      hip_rotation_l	        knee_angle_l	       ankle_angle_l	         mtp_angle_l	    lumbar_extension	      lumbar_bending	     lumbar_rotation	 ercspn_r/activation	 intobl_r/activation	 extobl_r/activation	    abd_r/activation	    add_r/activation	hamstrings_r/activation	bifemsh_r/activation	glut_max_r/activation	iliopsoas_r/activation	rect_fem_r/activation	  vasti_r/activation	gastroc_r/activation	 soleus_r/activation	tib_ant_r/activation	 ercspn_l/activation	 intobl_l/activation	 extobl_l/activation	    abd_l/activation	    add_l/activation	hamstrings_l/activation	bifemsh_l/activation	glut_max_l/activation	iliopsoas_l/activation	rect_fem_l/activation	  vasti_l/activation	gastroc_l/activation	 soleus_l/activation	tib_ant_l/activation	
          1.25317766	         -7.38579837	         -2.59727657	          7.09538139	          1.40355898	          0.92681769	         -0.01416837	         32.11998520	         -0.15246405	         -4.29355449	         -4.93978153	          4.04615625	          0.22755799	        -10.56896263	         -2.14638956	          5.13704533	         -7.51037436	         10.60277353	         28.65560650	         -3.02983275	          0.78793531	          0.00804855	          0.11628790	          0.15526511	          0.01500816	          0.00999999	          0.11161717	          0.16472483	          0.27043347	          0.03491887	          0.16323303	          0.01000004	          0.00999999	          0.03705209	          0.01000000	          0.38653526	          0.08769034	          0.00999999	          0.01000000	          0.05704868	          0.01000171	          0.01597209	          0.13545954	          0.05317380	          0.45460114	          0.01208865	          0.01000000	          0.40309144	          0.32728044	          0.01766570	
          1.26570944	         -7.46119078	         -2.55093462	          7.17774274	          1.42060875	          0.92481883	         -0.01376045	         32.09705930	         -0.06198621	         -3.99443402	         -6.60437111	          3.69002817	          0.19500862	        -10.86986620	         -2.16720795	          4.78057888	         -8.72786777	          9.90276070	         30.60576819	         -2.70486367	          1.08386767	         -0.24114063	          0.09619610	          0.18055103	          0.01241511	          0.01307156	          0.09233236	          0.14676706	          0.22370897	          0.07833004	          0.13503022	          0.01000000	          0.00999999	          0.03065036	          0.01208868	          0.43934455	          0.08750953	          0.00999999	          0.01000001	          0.04719201	          0.04465947	          0.03408631	          0.11205534	          0.04398662	          0.45569799	          0.01000004	          0.02068392	          0.37265786	          0.30741068	          0.01461348	
          1.27824122	         -7.52525645	         -2.50880152	          7.20478859	          1.43786208	          0.92318796	         -0.01324961	         31.95305417	          0.04018775	         -3.74934692	         -8.06467348	          3.17173183	          0.19004296	        -11.01727665	         -2.18106234	          4.38322015	        -10.23901724	          9.01593535	         32.62413514	         -2.37811565	          1.39861470	         -0.47943155	          0.09902620	          0.14935609	          0.01027007	          0.07050420	          0.11184757	          0.13026048	          0.18505736	          0.11426206	          0.11170019	          0.00999999	          0.00999999	          0.02535471	          0.01000005	          0.49452816	          0.10636196	          0.00999999	          0.01000000	          0.03903835	          0.03694338	          0.02819742	          0.09269483	          0.03638677	          0.45399794	          0.01000129	          0.02581575	          0.33927930	          0.27399711	          0.01208862	
          1.29077299	         -7.57730991	         -2.46035677	          7.17927623	          1.45511586	          0.92209302	         -0.01263925	         31.76091568	          0.15566710	         -3.55253815	         -9.43958950	          2.60785208	          0.15773941	        -10.93763321	         -2.17431169	          3.95348704	        -12.14556844	          7.91248384	         34.67410731	         -2.07308445	          1.71971697	         -0.70463878	          0.11043601	          0.12355089	          0.00999999	          0.12211583	          0.16814123	          0.11232234	          0.15308382	          0.15901458	          0.09240104	          0.01000000	          0.00999999	          0.02097401	          0.00999999	          0.52630961	          0.14215223	          0.00999999	          0.01000000	          0.03229344	          0.06160521	          0.02935058	          0.07667935	          0.03010000	          0.44572072	          0.01461340	          0.02135540	          0.28198036	          0.22665688	          0.00999999	
